<mxfile host="app.diagrams.net" agent="Mozilla/5.0 (Windows NT 10.0; Win64; x64) AppleWebKit/537.36 (KHTML, like Gecko) Chrome/133.0.0.0 Safari/537.36" version="26.0.14">
  <diagram name="Page-1" id="wkuvCptoMK1yB5laDaHz">
    <mxGraphModel dx="1430" dy="757" grid="1" gridSize="10" guides="1" tooltips="1" connect="1" arrows="1" fold="1" page="1" pageScale="1" pageWidth="827" pageHeight="1169" math="0" shadow="0">
      <root>
        <mxCell id="0" />
        <mxCell id="1" parent="0" />
        <mxCell id="PBY9xJ8bVe6ArAB7C0fZ-4" value="" style="rounded=1;whiteSpace=wrap;html=1;glass=1;" vertex="1" parent="1">
          <mxGeometry x="100" y="410" width="330" height="295" as="geometry" />
        </mxCell>
        <mxCell id="PBY9xJ8bVe6ArAB7C0fZ-1" value="ADTEST" style="pointerEvents=1;shadow=0;dashed=0;html=1;strokeColor=none;fillColor=#4495D1;labelPosition=center;verticalLabelPosition=bottom;verticalAlign=top;align=center;outlineConnect=0;shape=mxgraph.veeam.server;" vertex="1" parent="1">
          <mxGeometry x="137" y="460" width="190" height="38.8" as="geometry" />
        </mxCell>
        <mxCell id="PBY9xJ8bVe6ArAB7C0fZ-2" value="MantisBT" style="image;sketch=0;aspect=fixed;html=1;points=[];align=center;fontSize=12;image=img/lib/mscae/Docker.svg;" vertex="1" parent="1">
          <mxGeometry x="130" y="592" width="86.59" height="71" as="geometry" />
        </mxCell>
        <mxCell id="PBY9xJ8bVe6ArAB7C0fZ-3" value="MantisBT SQL" style="image;sketch=0;aspect=fixed;html=1;points=[];align=center;fontSize=12;image=img/lib/mscae/Docker.svg;" vertex="1" parent="1">
          <mxGeometry x="327" y="592" width="86.59" height="71" as="geometry" />
        </mxCell>
        <mxCell id="PBY9xJ8bVe6ArAB7C0fZ-5" value="" style="shape=flexArrow;endArrow=classic;startArrow=classic;html=1;rounded=0;fillColor=#f8cecc;strokeColor=#b85450;" edge="1" parent="1" source="PBY9xJ8bVe6ArAB7C0fZ-2" target="PBY9xJ8bVe6ArAB7C0fZ-3">
          <mxGeometry width="100" height="100" relative="1" as="geometry">
            <mxPoint x="360" y="610" as="sourcePoint" />
            <mxPoint x="460" y="510" as="targetPoint" />
          </mxGeometry>
        </mxCell>
        <mxCell id="PBY9xJ8bVe6ArAB7C0fZ-6" value="Private&lt;div&gt;&lt;div&gt;Network&lt;/div&gt;&lt;/div&gt;" style="edgeLabel;html=1;align=center;verticalAlign=middle;resizable=0;points=[];rotation=0;" vertex="1" connectable="0" parent="PBY9xJ8bVe6ArAB7C0fZ-5">
          <mxGeometry x="0.0549" y="-5" relative="1" as="geometry">
            <mxPoint x="-5" y="18" as="offset" />
          </mxGeometry>
        </mxCell>
        <mxCell id="PBY9xJ8bVe6ArAB7C0fZ-7" value="" style="shape=flexArrow;endArrow=classic;startArrow=classic;html=1;rounded=0;entryX=0.194;entryY=1.055;entryDx=0;entryDy=0;entryPerimeter=0;" edge="1" parent="1" source="PBY9xJ8bVe6ArAB7C0fZ-2" target="PBY9xJ8bVe6ArAB7C0fZ-1">
          <mxGeometry width="100" height="100" relative="1" as="geometry">
            <mxPoint x="390" y="640" as="sourcePoint" />
            <mxPoint x="490" y="540" as="targetPoint" />
          </mxGeometry>
        </mxCell>
        <mxCell id="PBY9xJ8bVe6ArAB7C0fZ-9" value="8989" style="edgeLabel;html=1;align=center;verticalAlign=middle;resizable=0;points=[];" vertex="1" connectable="0" parent="PBY9xJ8bVe6ArAB7C0fZ-7">
          <mxGeometry x="-0.063" y="2" relative="1" as="geometry">
            <mxPoint as="offset" />
          </mxGeometry>
        </mxCell>
        <mxCell id="PBY9xJ8bVe6ArAB7C0fZ-11" value="" style="edgeStyle=orthogonalEdgeStyle;rounded=0;orthogonalLoop=1;jettySize=auto;html=1;" edge="1" parent="1" source="PBY9xJ8bVe6ArAB7C0fZ-10" target="PBY9xJ8bVe6ArAB7C0fZ-1">
          <mxGeometry relative="1" as="geometry" />
        </mxCell>
        <mxCell id="PBY9xJ8bVe6ArAB7C0fZ-10" value="port8989" style="fontStyle=0;labelPosition=right;verticalLabelPosition=middle;align=left;verticalAlign=middle;spacingLeft=2;" vertex="1" parent="1">
          <mxGeometry x="217" y="410" width="30" height="30" as="geometry" />
        </mxCell>
        <mxCell id="PBY9xJ8bVe6ArAB7C0fZ-15" value="" style="edgeStyle=orthogonalEdgeStyle;rounded=0;orthogonalLoop=1;jettySize=auto;html=1;" edge="1" parent="1" source="PBY9xJ8bVe6ArAB7C0fZ-13" target="PBY9xJ8bVe6ArAB7C0fZ-10">
          <mxGeometry relative="1" as="geometry" />
        </mxCell>
        <mxCell id="PBY9xJ8bVe6ArAB7C0fZ-19" style="edgeStyle=orthogonalEdgeStyle;rounded=1;orthogonalLoop=1;jettySize=auto;html=1;entryX=0;entryY=0.5;entryDx=0;entryDy=0;dashed=1;dashPattern=12 12;curved=0;startArrow=classic;startFill=1;fillColor=#f8cecc;strokeColor=light-dark(#e70d0d, #d7817e);" edge="1" parent="1" source="PBY9xJ8bVe6ArAB7C0fZ-13" target="PBY9xJ8bVe6ArAB7C0fZ-18">
          <mxGeometry relative="1" as="geometry" />
        </mxCell>
        <mxCell id="PBY9xJ8bVe6ArAB7C0fZ-20" value="&lt;b&gt;&lt;font style=&quot;color: light-dark(rgb(231, 13, 13), rgb(237, 237, 237)); font-size: 29px;&quot;&gt;X&lt;/font&gt;&lt;/b&gt;" style="edgeLabel;html=1;align=center;verticalAlign=middle;resizable=0;points=[];" vertex="1" connectable="0" parent="PBY9xJ8bVe6ArAB7C0fZ-19">
          <mxGeometry x="0.0012" y="-1" relative="1" as="geometry">
            <mxPoint as="offset" />
          </mxGeometry>
        </mxCell>
        <mxCell id="PBY9xJ8bVe6ArAB7C0fZ-13" value="NHS Network" style="image;aspect=fixed;perimeter=ellipsePerimeter;html=1;align=center;shadow=0;dashed=0;spacingTop=3;image=img/lib/active_directory/internet_cloud.svg;" vertex="1" parent="1">
          <mxGeometry x="127" y="150" width="200" height="125.99" as="geometry" />
        </mxCell>
        <mxCell id="PBY9xJ8bVe6ArAB7C0fZ-16" style="edgeStyle=orthogonalEdgeStyle;rounded=0;orthogonalLoop=1;jettySize=auto;html=1;entryX=0.5;entryY=0;entryDx=0;entryDy=0;" edge="1" parent="1" source="PBY9xJ8bVe6ArAB7C0fZ-14" target="PBY9xJ8bVe6ArAB7C0fZ-13">
          <mxGeometry relative="1" as="geometry" />
        </mxCell>
        <mxCell id="PBY9xJ8bVe6ArAB7C0fZ-14" value="NHS User" style="image;aspect=fixed;perimeter=ellipsePerimeter;html=1;align=center;shadow=0;dashed=0;spacingTop=3;image=img/lib/active_directory/workstation_client.svg;" vertex="1" parent="1">
          <mxGeometry x="100" y="30" width="42.5" height="50" as="geometry" />
        </mxCell>
        <mxCell id="PBY9xJ8bVe6ArAB7C0fZ-18" value="External" style="image;aspect=fixed;perimeter=ellipsePerimeter;html=1;align=center;shadow=0;dashed=0;spacingTop=3;image=img/lib/active_directory/internet_cloud.svg;" vertex="1" parent="1">
          <mxGeometry x="530" y="150" width="200" height="125.99" as="geometry" />
        </mxCell>
        <mxCell id="PBY9xJ8bVe6ArAB7C0fZ-21" value="http:&lt;span style=&quot;background-color: transparent; color: light-dark(rgb(0, 0, 0), rgb(255, 255, 255));&quot;&gt;//adtest.luht.scot.nhs.uk:8989&lt;/span&gt;" style="text;html=1;align=center;verticalAlign=middle;whiteSpace=wrap;rounded=0;rotation=-90;fontStyle=1;fontSize=15;" vertex="1" parent="1">
          <mxGeometry x="82.5" y="542.5" width="60" height="30" as="geometry" />
        </mxCell>
      </root>
    </mxGraphModel>
  </diagram>
</mxfile>
